<svg xmlns="http://www.w3.org/2000/svg" viewBox="0 0 276 290" fill="#4cc4a0">
<path d="M0 0 C2.54 2.19 5 4.46 7.46 6.73 C8.83 7.86 10.2 8.98 11.58 10.11 C30.03 26.54 42.23 50.68 44.33 75.33 C45.87 104.01 38.15 129.69 19.46 151.73 C18.94 152.37 18.43 153.01 17.9 153.66 C-1.67 177.53 -34.45 192.65 -64.71 196.26 C-99.72 199.55 -136.87 195.63 -165.48 173.36 C-168.07 171.2 -169.65 169.57 -171.54 166.73 C-171.45 163.07 -170.59 161.78 -168.17 158.98 C-164.57 155.9 -161.55 155.31 -156.85 155.37 C-152.26 156.09 -148.45 158.63 -144.48 160.92 C-115.65 176.67 -80.47 179.4 -48.83 170.44 C-23.25 162.68 -0.25 146.01 12.6 122.32 C18.63 110.84 22.69 98.73 23.46 85.73 C23.5 85.06 23.54 84.39 23.58 83.7 C24.31 59.29 14.24 37.29 -1.73 19.26 C-7.13 13.64 -13.09 9.07 -19.54 4.73 C-19.93 4.47 -19.93 4.47 -21.87 3.15 C-48.35 -13.85 -83.09 -17.22 -113.41 -10.76 C-131.01 -6.67 -146.4 1.71 -160.54 12.73 C-160.96 13.05 -160.96 13.05 -163.06 14.69 C-181.49 30.02 -191.9 53.31 -194.54 76.73 C-194.82 82.31 -194.83 87.88 -194.82 93.46 C-194.82 95.1 -194.83 96.74 -194.83 98.38 C-194.84 101.88 -194.85 105.38 -194.85 108.88 C-194.85 114.42 -194.87 119.96 -194.89 125.5 C-194.94 139.24 -194.97 152.99 -194.99 166.73 C-195.01 177.44 -195.03 188.15 -195.07 198.86 C-195.1 204.37 -195.1 209.87 -195.1 215.38 C-195.1 218.8 -195.12 222.22 -195.14 225.63 C-195.14 227.22 -195.14 228.8 -195.14 230.39 C-195.13 232.55 -195.14 234.71 -195.16 236.88 C-195.16 238.09 -195.16 239.3 -195.17 240.54 C-195.68 244.83 -197.27 247.41 -200.23 250.48 C-205.14 253.13 -209.17 253.14 -214.36 251.61 C-217.9 249.52 -218.82 248.4 -220.54 244.73 C-220.92 241.51 -220.92 241.51 -220.93 237.8 C-220.94 237.11 -220.94 236.43 -220.95 235.72 C-220.96 233.43 -220.96 231.14 -220.95 228.84 C-220.95 227.2 -220.96 225.55 -220.97 223.91 C-220.99 219.43 -220.99 214.96 -220.98 210.49 C-220.98 206.75 -220.98 203 -220.99 199.26 C-221 190.41 -221 181.56 -220.99 172.71 C-220.98 163.62 -220.99 154.53 -221.02 145.44 C-221.04 137.61 -221.05 129.79 -221.04 121.96 C-221.04 117.29 -221.04 112.63 -221.06 107.97 C-221.07 103.56 -221.07 99.16 -221.05 94.76 C-221.05 93.16 -221.05 91.56 -221.06 89.96 C-221.15 75.58 -219.17 61.19 -213.29 47.92 C-213 47.23 -212.7 46.53 -212.39 45.82 C-199.67 17.11 -174.73 -4.9 -145.89 -16.64 C-100.36 -34.19 -39.2 -32.24 0 0 Z " fill="#4cc4a0" transform="translate(226.54,32.27)"/>
<path d="M0 0 C-3.28 2.72 -6.59 5.02 -10.25 7.19 C-25.32 16.75 -33.83 31.52 -41.94 46.94 C-53.04 68 -66.67 87.52 -90.43 95.34 C-95.65 96.68 -99.34 96.77 -104.38 94.44 C-107.59 91.45 -108.67 89.27 -109 85 C-108.94 60.8 -98.34 42.34 -81.94 25.44 C-60.75 4.43 -29.95 -10.46 0 0 Z " fill="#4cc4a0" transform="translate(178,63)"/>
<path d="M0 0 C6.58 4.29 8.74 8.81 10.37 16.33 C13.07 35.29 8.64 52.31 -2.3 67.99 C-4.48 70.72 -6.75 73.31 -9.12 75.88 C-9.5 76.29 -9.5 76.29 -11.39 78.42 C-26.98 95.07 -49.34 105.28 -72.16 106.11 C-93.11 106.52 -93.11 106.52 -102.12 101.88 C-102.78 100.88 -103.44 99.89 -104.12 98.88 C-103.6 98.61 -103.07 98.34 -102.53 98.07 C-73.72 83.4 -57.8 63.83 -43.31 35.43 C-38.7 26.42 -33.74 18.56 -27.12 10.88 C-26.82 10.52 -26.82 10.52 -25.29 8.7 C-18.66 1.44 -9.76 -3.51 0 0 Z " fill="#4cc4a0" transform="translate(203.12,75.12)"/>
</svg>
