<svg xmlns="http://www.w3.org/2000/svg" viewBox="0 0 830 290" fill="currentColor">
<path d="M0 0 C2.54 2.19 5 4.46 7.46 6.73 C8.83 7.86 10.2 8.98 11.58 10.11 C30.03 26.54 42.23 50.68 44.33 75.33 C45.87 104.01 38.15 129.69 19.46 151.73 C18.94 152.37 18.43 153.01 17.9 153.66 C-1.67 177.53 -34.45 192.65 -64.71 196.26 C-99.72 199.55 -136.87 195.63 -165.48 173.36 C-168.07 171.2 -169.65 169.57 -171.54 166.73 C-171.45 163.07 -170.59 161.78 -168.17 158.98 C-164.57 155.9 -161.55 155.31 -156.85 155.37 C-152.26 156.09 -148.45 158.63 -144.48 160.92 C-115.65 176.67 -80.47 179.4 -48.83 170.44 C-23.25 162.68 -0.25 146.01 12.6 122.32 C18.63 110.84 22.69 98.73 23.46 85.73 C23.5 85.06 23.54 84.39 23.58 83.7 C24.31 59.29 14.24 37.29 -1.73 19.26 C-7.13 13.64 -13.09 9.07 -19.54 4.73 C-19.93 4.47 -19.93 4.47 -21.87 3.15 C-48.35 -13.85 -83.09 -17.22 -113.41 -10.76 C-131.01 -6.67 -146.4 1.71 -160.54 12.73 C-160.96 13.05 -160.96 13.05 -163.06 14.69 C-181.49 30.02 -191.9 53.31 -194.54 76.73 C-194.82 82.31 -194.83 87.88 -194.82 93.46 C-194.82 95.1 -194.83 96.74 -194.83 98.38 C-194.84 101.88 -194.85 105.38 -194.85 108.88 C-194.85 114.42 -194.87 119.96 -194.89 125.5 C-194.94 139.24 -194.97 152.99 -194.99 166.73 C-195.01 177.44 -195.03 188.15 -195.07 198.86 C-195.1 204.37 -195.1 209.87 -195.1 215.38 C-195.1 218.8 -195.12 222.22 -195.14 225.63 C-195.14 227.22 -195.14 228.8 -195.14 230.39 C-195.13 232.55 -195.14 234.71 -195.16 236.88 C-195.16 238.09 -195.16 239.3 -195.17 240.54 C-195.68 244.83 -197.27 247.41 -200.23 250.48 C-205.14 253.13 -209.17 253.14 -214.36 251.61 C-217.9 249.52 -218.82 248.4 -220.54 244.73 C-220.92 241.51 -220.92 241.51 -220.93 237.8 C-220.94 237.11 -220.94 236.43 -220.95 235.72 C-220.96 233.43 -220.96 231.14 -220.95 228.84 C-220.95 227.2 -220.96 225.55 -220.97 223.91 C-220.99 219.43 -220.99 214.96 -220.98 210.49 C-220.98 206.75 -220.98 203 -220.99 199.26 C-221 190.41 -221 181.56 -220.99 172.71 C-220.98 163.62 -220.99 154.53 -221.02 145.44 C-221.04 137.61 -221.05 129.79 -221.04 121.96 C-221.04 117.29 -221.04 112.63 -221.06 107.97 C-221.07 103.56 -221.07 99.16 -221.05 94.76 C-221.05 93.16 -221.05 91.56 -221.06 89.96 C-221.15 75.58 -219.17 61.19 -213.29 47.92 C-213 47.23 -212.7 46.53 -212.39 45.82 C-199.67 17.11 -174.73 -4.9 -145.89 -16.64 C-100.36 -34.19 -39.2 -32.24 0 0 Z " fill="currentColor" transform="translate(226.54,32.27)"/>
<path d="M0 0 C-3.28 2.72 -6.59 5.02 -10.25 7.19 C-25.32 16.75 -33.83 31.52 -41.94 46.94 C-53.04 68 -66.67 87.52 -90.43 95.34 C-95.65 96.68 -99.34 96.77 -104.38 94.44 C-107.59 91.45 -108.67 89.27 -109 85 C-108.94 60.8 -98.34 42.34 -81.94 25.44 C-60.75 4.43 -29.95 -10.46 0 0 Z " fill="currentColor" transform="translate(178,63)"/>
<path d="M0 0 C3.59 2.52 5.23 4.69 6.06 8.94 C6.29 12.26 5.9 13.2 4.31 16.38 C0.86 20.3 -0.66 20.85 -5.88 21.44 C-10.67 21.34 -12.72 19.36 -16 16 C-17.55 12.89 -17.29 10.44 -17 7 C-15.29 3.64 -13.94 1.6 -10.75 -0.44 C-6.94 -1.22 -3.73 -1.15 0 0 Z " fill="currentColor" transform="translate(388,70)"/>
<path d="M0 0 C0.38 -0 0.38 -0 2.32 -0 C4.81 -0.01 7.29 -0 9.78 0.01 C10.62 0.01 11.46 0.01 12.33 0.01 C54.23 0.12 54.23 0.12 68.28 9.13 C69.17 9.69 70.06 10.25 70.97 10.82 C77.59 17.44 81.12 25.49 81.34 34.79 C80.92 44.32 77.62 51.32 70.59 57.76 C66.63 61.13 66.63 61.13 64.28 61.13 C64.28 61.79 64.28 62.45 64.28 63.13 C65.42 63.34 66.55 63.55 67.72 63.76 C76.08 65.9 81.57 70.67 86.09 77.89 C90.92 86.99 91.17 96.31 88.28 106.13 C84.08 116.39 77.29 122.02 67.54 126.87 C58.59 130.34 50.02 130.43 40.54 130.4 C39.13 130.4 37.72 130.4 36.31 130.4 C33.36 130.41 30.42 130.4 27.48 130.39 C23.71 130.38 19.94 130.39 16.18 130.4 C13.27 130.41 10.36 130.41 7.45 130.4 C6.06 130.4 4.67 130.4 3.28 130.41 C1.34 130.41 -0.59 130.4 -2.53 130.39 C-3.63 130.39 -4.73 130.39 -5.87 130.39 C-8.71 130.13 -10.36 129.7 -12.72 128.13 C-13.95 125.67 -13.85 124.04 -13.86 121.28 C-13.86 120.26 -13.87 119.23 -13.88 118.18 C-13.88 117.05 -13.88 115.92 -13.88 114.75 C-13.88 114.16 -13.88 114.16 -13.89 111.16 C-13.91 107.91 -13.91 104.65 -13.92 101.39 C-13.92 99.36 -13.93 97.33 -13.93 95.29 C-13.94 88.94 -13.95 82.58 -13.96 76.22 C-13.96 68.87 -13.98 61.53 -14.01 54.18 C-14.03 48.51 -14.04 42.83 -14.04 37.16 C-14.04 33.76 -14.05 30.37 -14.07 26.98 C-14.08 23.2 -14.08 19.42 -14.08 15.64 C-14.08 14.51 -14.09 13.39 -14.1 12.23 C-14.1 11.2 -14.09 10.17 -14.09 9.11 C-14.09 8.22 -14.09 7.32 -14.09 6.4 C-13.64 3.64 -12.93 2.8 -10.72 1.13 C-7.09 -0.08 -3.77 -0.01 0 0 Z M13.28 22.13 C13.28 32.69 13.28 43.25 13.28 54.13 C15.42 54.17 15.42 54.17 26.22 54.38 C27.55 54.42 28.87 54.46 30.24 54.49 C37.35 54.56 43.21 54.1 49.28 50.13 C54.06 45.11 54.63 41.65 54.57 34.9 C54.07 30.1 51.74 27.46 48.28 24.32 C44.18 21.88 40.25 22.01 35.55 22.04 C34.38 22.04 33.21 22.04 32.01 22.04 C30.53 22.05 29.05 22.06 27.53 22.07 C25.18 22.08 25.18 22.08 13.28 22.13 Z M13.28 74.13 C13.28 85.68 13.28 97.23 13.28 109.13 C15.98 109.17 15.98 109.17 29.66 109.38 C30.5 109.4 30.5 109.4 34.76 109.49 C44 109.61 52.68 109.5 59.78 102.76 C63.05 97.04 64 92.48 62.28 86.13 C59.59 80.64 55.66 77.77 50.28 75.13 C46.48 73.85 42.64 74.01 38.67 74.04 C38.03 74.04 37.38 74.04 36.72 74.04 C34.32 74.04 31.93 74.06 29.53 74.07 C24.17 74.09 18.81 74.11 13.28 74.13 Z " fill="currentColor" transform="translate(430.72,68.87)"/>
<path d="M0 0 C6.58 4.29 8.74 8.81 10.37 16.33 C13.07 35.29 8.64 52.31 -2.3 67.99 C-4.48 70.72 -6.75 73.31 -9.12 75.88 C-9.5 76.29 -9.5 76.29 -11.39 78.42 C-26.98 95.07 -49.34 105.28 -72.16 106.11 C-93.11 106.52 -93.11 106.52 -102.12 101.88 C-102.78 100.88 -103.44 99.89 -104.12 98.88 C-103.6 98.61 -103.07 98.34 -102.53 98.07 C-73.72 83.4 -57.8 63.83 -43.31 35.43 C-38.7 26.42 -33.74 18.56 -27.12 10.88 C-26.82 10.52 -26.82 10.52 -25.29 8.7 C-18.66 1.44 -9.76 -3.51 0 0 Z " fill="currentColor" transform="translate(203.12,75.12)"/>
<path d="M0 0 C2.38 3.25 2.4 5.4 2.34 9.34 C1.74 12.21 1.02 13.54 -1.12 15.56 C-4.13 16.21 -4.13 16.21 -7.69 16.5 C-15.89 17.48 -22.65 19.62 -28.5 25.69 C-35.39 34.64 -36.31 45.8 -36.12 56.69 C-36.08 63.96 -36.18 71.23 -36.44 78.5 C-36.46 79.45 -36.48 80.41 -36.51 81.39 C-36.54 82.28 -36.58 83.17 -36.61 84.09 C-36.64 84.88 -36.67 85.67 -36.69 86.49 C-37.23 89.07 -38.03 89.99 -40.12 91.56 C-43.12 91.96 -43.12 91.96 -46.56 91.94 C-47.7 91.95 -48.83 91.95 -50 91.96 C-53.55 91.51 -54.7 91.17 -57.12 88.56 C-57.53 85.77 -57.67 83.37 -57.64 80.57 C-57.65 79.76 -57.66 78.95 -57.66 78.11 C-57.68 75.42 -57.67 72.73 -57.66 70.04 C-57.66 68.17 -57.66 66.3 -57.67 64.43 C-57.67 60.51 -57.67 56.59 -57.65 52.67 C-57.62 47.64 -57.64 42.62 -57.66 37.59 C-57.68 33.73 -57.67 29.87 -57.66 26.01 C-57.66 24.16 -57.66 22.3 -57.67 20.45 C-57.68 17.86 -57.66 15.27 -57.64 12.68 C-57.65 11.91 -57.66 11.15 -57.67 10.36 C-57.61 6.87 -57.39 4.92 -55.27 2.09 C-52.43 0.07 -50.58 0.06 -47.12 0.12 C-46.61 0.13 -46.61 0.13 -44 0.13 C-40.76 0.62 -39.36 1.17 -37.12 3.56 C-36.48 5.97 -36.48 5.97 -36.31 8.62 C-36.28 9.06 -36.28 9.06 -36.11 11.29 C-36.12 13.56 -36.12 13.56 -37.12 15.56 C-36.46 15.56 -35.81 15.56 -35.12 15.56 C-34.86 14.97 -34.59 14.38 -34.32 13.78 C-30.46 6.6 -22.85 1.35 -15.16 -1.05 C-9.9 -2.05 -4.91 -2.26 0 0 Z " fill="currentColor" transform="translate(355.12,107.44)"/>
<path d="M0 0 C2.57 2.26 3.33 3.45 4.06 6.81 C3.98 11.49 3.69 14.87 1.06 18.81 C-1.64 19.23 -4.22 19.5 -6.94 19.69 C-15.03 20.47 -22.24 21.55 -27.84 28 C-31.43 33.13 -33.04 37.23 -33.11 43.5 C-33.12 44.43 -33.14 45.35 -33.15 46.3 C-33.16 47.3 -33.17 48.29 -33.18 49.31 C-33.22 51.41 -33.25 53.52 -33.28 55.63 C-33.33 58.94 -33.38 62.26 -33.41 65.57 C-33.45 68.78 -33.51 71.98 -33.56 75.18 C-33.57 76.17 -33.58 77.16 -33.58 78.18 C-33.74 87.03 -33.74 87.03 -35.94 90.81 C-39.07 92.38 -42.38 92.08 -45.81 92.12 C-46.17 92.14 -46.17 92.14 -48 92.21 C-51.25 92.25 -53.43 92.16 -56.14 90.29 C-58.61 86.88 -58.5 83.85 -58.46 79.8 C-58.46 79 -58.47 78.2 -58.48 77.37 C-58.49 74.71 -58.48 72.06 -58.47 69.41 C-58.47 67.56 -58.48 65.72 -58.48 63.87 C-58.49 60 -58.48 56.14 -58.46 52.27 C-58.44 47.31 -58.45 42.36 -58.47 37.4 C-58.49 33.59 -58.48 29.78 -58.47 25.97 C-58.47 24.14 -58.47 22.31 -58.48 20.48 C-58.49 17.93 -58.48 15.38 -58.46 12.82 C-58.46 12.07 -58.47 11.31 -58.48 10.53 C-58.42 7.1 -58.18 5.15 -56.13 2.34 C-52.89 0.08 -50.28 0.32 -46.38 0.38 C-46.04 0.37 -46.04 0.37 -44.34 0.35 C-41.53 0.39 -39.42 0.51 -37.02 2.02 C-35.6 4.38 -35.43 6.26 -35.25 9 C-35.22 9.45 -35.22 9.45 -35.05 11.73 C-35.01 12.42 -34.98 13.1 -34.94 13.81 C-34.31 13.14 -33.68 12.46 -33.03 11.77 C-24.36 2.73 -13.02 -5.26 0 0 Z " fill="currentColor" transform="translate(590.94,107.19)"/>
<path d="M0 0 C0.72 0.37 1.44 0.75 2.18 1.13 C12.36 6.92 18.37 15.48 21.82 26.64 C23.25 33.03 24.53 40.47 21.87 46.61 C20 49 20 49 17.21 49.6 C16.08 49.59 14.95 49.58 13.78 49.57 C12.5 49.57 11.22 49.57 9.9 49.57 C8.5 49.54 7.11 49.51 5.71 49.49 C4.28 49.48 2.85 49.47 1.42 49.47 C-2.35 49.45 -6.11 49.4 -9.87 49.34 C-13.71 49.29 -17.56 49.27 -21.4 49.24 C-28.93 49.19 -36.47 49.11 -44 49 C-43.55 50.43 -43.09 51.86 -42.63 53.29 C-42.37 54.09 -42.12 54.89 -41.86 55.71 C-39.91 60.91 -36.7 63.96 -31.81 66.38 C-21.61 70.03 -7.84 69.49 2 65 C2.91 64.44 3.82 63.89 4.75 63.31 C7.81 61.53 9.52 61.35 13 62 C15.81 64.68 17.59 66.94 19 70.56 C19 73.94 18.07 75.33 16 78 C6.24 87.76 -5.55 89.19 -18.69 89.25 C-19.82 89.27 -20.95 89.29 -22.12 89.31 C-36.1 89.38 -47.89 85.06 -58.25 75.5 C-68.65 64.57 -71.52 52.24 -71.28 37.59 C-70.75 24.93 -64.3 14.47 -55.34 5.86 C-41.07 -5.46 -16.28 -9.08 0 0 Z M-40.55 22.67 C-42 25 -42 25 -44 32 C-30.14 32 -16.28 32 -2 32 C-3.39 22.26 -3.39 22.26 -8 18 C-19.69 11.06 -31.69 12.53 -40.55 22.67 Z " fill="currentColor" transform="translate(665,111)"/>
<path d="M0 0 C1.12 -0.01 2.25 -0.02 3.41 -0.03 C7.25 0.63 8.19 1.39 10.5 4.5 C10.89 7.34 11.05 9.78 11.02 12.62 C11.02 13.43 11.03 14.25 11.04 15.09 C11.06 17.78 11.04 20.47 11.03 23.16 C11.03 25.03 11.04 26.9 11.04 28.77 C11.05 32.69 11.04 36.61 11.02 40.53 C11 45.55 11.01 50.58 11.04 55.6 C11.05 59.47 11.05 63.33 11.04 67.19 C11.03 69.04 11.04 70.9 11.05 72.75 C11.06 75.34 11.04 77.92 11.02 80.51 C11.03 81.28 11.03 82.05 11.04 82.84 C10.96 88.01 10.96 88.01 8.66 90.47 C5.69 91.88 3.28 91.93 0 91.94 C-0.56 91.95 -0.56 91.95 -3.41 92 C-7.26 91.38 -8.18 90.61 -10.5 87.5 C-10.89 84.7 -11.05 82.29 -11.02 79.49 C-11.02 78.69 -11.03 77.88 -11.04 77.05 C-11.06 74.4 -11.04 71.75 -11.03 69.09 C-11.03 67.25 -11.04 65.4 -11.04 63.56 C-11.05 59.69 -11.04 55.82 -11.02 51.96 C-11 47 -11.01 42.04 -11.04 37.09 C-11.05 33.28 -11.05 29.47 -11.04 25.65 C-11.03 23.83 -11.04 22 -11.05 20.17 C-11.06 17.62 -11.04 15.06 -11.02 12.51 C-11.03 11.75 -11.03 11 -11.04 10.22 C-10.99 6.77 -10.75 4.84 -8.66 2.03 C-5.7 -0.07 -3.6 -0.03 0 0 Z " fill="currentColor" transform="translate(381.5,107.5)"/>
<path d="M0 0 C0.8 -0.02 1.6 -0.04 2.43 -0.06 C3.21 -0.06 3.98 -0.06 4.79 -0.06 C5.49 -0.06 6.19 -0.06 6.91 -0.06 C9.89 0.67 11.03 2.06 12.94 4.44 C14.12 7.24 14.12 7.24 15.09 10.47 C15.45 11.66 15.81 12.86 16.19 14.09 C16.56 15.37 16.94 16.65 17.31 17.94 C17.7 19.24 18.1 20.55 18.49 21.85 C19.28 24.47 20.06 27.09 20.83 29.71 C21.83 33.08 22.84 36.44 23.86 39.8 C25.23 44.34 26.59 48.89 27.94 53.44 C30.62 47.26 32.79 40.96 34.81 34.54 C35.07 33.74 35.32 32.94 35.58 32.12 C36.64 28.77 37.69 25.43 38.73 22.07 C39.5 19.6 40.28 17.13 41.06 14.67 C41.18 14.29 41.18 14.29 41.76 12.39 C43.16 8.02 44.71 4.83 47.94 1.44 C50.94 -0.06 54.02 0.17 57.31 0.12 C57.99 0.1 58.66 0.07 59.35 0.04 C62.34 -0 64.44 0.09 66.93 1.8 C69.98 5.8 71.14 10.23 72.61 15 C72.94 16.03 73.26 17.06 73.6 18.13 C74.29 20.3 74.97 22.48 75.65 24.66 C76.69 27.99 77.74 31.33 78.8 34.66 C79.47 36.78 80.13 38.89 80.8 41 C81.11 42 81.43 43 81.75 44.03 C82.04 44.96 82.33 45.89 82.62 46.85 C82.88 47.66 83.13 48.48 83.39 49.32 C83.94 51.44 83.94 51.44 83.94 54.44 C84.6 54.44 85.26 54.44 85.94 54.44 C85.99 54.17 85.99 54.17 86.28 52.79 C87.48 47.16 88.98 41.67 90.69 36.17 C90.95 35.32 91.21 34.48 91.47 33.61 C92.01 31.85 92.56 30.08 93.11 28.32 C93.94 25.62 94.77 22.91 95.59 20.21 C96.12 18.49 96.66 16.77 97.19 15.04 C97.43 14.24 97.68 13.43 97.93 12.61 C98.17 11.85 98.4 11.1 98.64 10.33 C98.84 9.67 99.05 9.02 99.25 8.34 C100.64 4.49 101.44 2.77 104.94 0.44 C107.79 0.22 110.52 0.11 113.38 0.12 C114.14 0.11 114.9 0.09 115.69 0.08 C118.93 0.07 121.48 0.27 124.54 1.39 C126.5 4.25 125.87 6.51 125.44 9.83 C124.54 14.52 122.88 18.91 121.22 23.38 C121.03 23.89 121.03 23.89 120.08 26.52 C118.87 29.83 117.66 33.13 116.44 36.44 C115.65 38.59 114.86 40.75 114.08 42.91 C112.9 46.14 111.72 49.37 110.53 52.6 C108.46 58.22 106.44 63.84 104.48 69.5 C104.08 70.64 103.68 71.78 103.26 72.96 C102.5 75.14 101.75 77.33 101.01 79.52 C100.83 80.01 100.83 80.01 99.96 82.49 C99.67 83.35 99.37 84.21 99.07 85.1 C97.75 87.82 96.22 89.47 93.94 91.44 C91.99 91.96 91.99 91.96 89.97 91.97 C89.6 91.97 89.6 91.97 87.74 91.98 C86.98 91.97 86.22 91.95 85.44 91.94 C84.68 91.95 83.92 91.97 83.14 91.98 C82.4 91.98 81.66 91.97 80.91 91.97 C80.24 91.96 79.57 91.96 78.89 91.96 C75.88 91.16 74.85 89.91 72.94 87.44 C71.59 84.5 70.59 81.47 69.59 78.39 C69.44 77.95 69.44 77.95 68.69 75.72 C67.74 72.9 66.81 70.07 65.88 67.25 C65.25 65.37 64.61 63.49 63.98 61.61 C62.55 57.34 61.13 53.08 59.72 48.81 C58.47 45.01 57.2 41.23 55.94 37.44 C55.75 38.06 55.55 38.67 55.36 39.31 C53.36 45.74 51.35 52.16 49.32 58.58 C48.57 60.98 47.82 63.37 47.08 65.77 C46 69.22 44.92 72.67 43.83 76.11 C43.5 77.18 43.17 78.26 42.83 79.36 C42.51 80.36 42.19 81.36 41.86 82.39 C41.58 83.27 41.31 84.15 41.03 85.06 C39.73 87.89 38.35 89.48 35.94 91.44 C32.96 91.87 30.46 92.04 27.5 92 C27.12 92.01 27.12 92.01 25.22 92.07 C24.49 92.07 23.76 92.07 23 92.07 C22.67 92.07 22.67 92.07 21 92.07 C17.68 91.05 15.85 89.22 13.94 86.44 C12.04 82.45 10.58 78.34 9.1 74.18 C8.66 72.97 8.22 71.76 7.76 70.51 C6.58 67.29 5.42 64.07 4.27 60.84 C3.11 57.63 1.94 54.42 0.77 51.21 C-1.46 45.08 -3.66 38.95 -5.86 32.8 C-6.99 29.65 -8.13 26.5 -9.29 23.35 C-9.93 21.56 -10.58 19.76 -11.23 17.97 C-11.37 17.58 -11.37 17.58 -12.11 15.58 C-13.6 11.42 -14.58 7.92 -14.06 3.44 C-10.05 -0.39 -5.23 -0.05 0 0 Z " fill="currentColor" transform="translate(704.06,107.56)"/>
</svg>
